PathFileType	4	(X/Y/Z)	Patient4_TMGait_0pt4_01_right_13.trc.trc
DataRate	CameraRate	NumFrames	NumMarkers	Units	OrigDataRate	OrigDataStartFrame	OrigNumFrames
76.086956521739	76.086956521739	4	33	mm	76.086956521739	71	       141
Frame#	Time	Sacral			L.Shoulder			Chest			R.Shoulder			Neck			R.ASIS			L.ASIS			R.Thigh.Superior			R.Thigh.Lateral			R.Thigh.Inferior			R.Patella			L.Thigh.Superior			L.Thigh.Lateral			L.Thigh.Inferior			L.Patella			L.Shank.Superior			L.Shank.Lateral			L.Shank.Inferior			R.Shank.Superior			R.Shank.Lateral			R.Shank.Inferior			R.Heel			R.Midfoot.Superior			R.Midfoot.Lateral			R.Toe			L.Heel			L.Midfoot.Lateral			L.Midfoot.Superior			L.Toe			L.Elbow			L.Wrist			R.Elbow			R.Wrist			
		X1	Y1	Z1	X2	Y2	Z2	X3	Y3	Z3	X4	Y4	Z4	X5	Y5	Z5	X6	Y6	Z6	X7	Y7	Z7	X8	Y8	Z8	X9	Y9	Z9	X10	Y10	Z10	X11	Y11	Z11	X12	Y12	Z12	X13	Y13	Z13	X14	Y14	Z14	X15	Y15	Z15	X16	Y16	Z16	X17	Y17	Z17	X18	Y18	Z18	X19	Y19	Z19	X20	Y20	Z20	X21	Y21	Z21	X22	Y22	Z22	X23	Y23	Z23	X24	Y24	Z24	X25	Y25	Z25	X26	Y26	Z26	X27	Y27	Z27	X28	Y28	Z28	X29	Y29	Z29	X30	Y30	Z30	X31	Y31	Z31	X32	Y32	Z32	X33	Y33	Z33	

71	17.650000000000	830.628396396972	1002.958035453010	539.002453421086	985.767262605677	1430.391181534720	341.270326483145	1109.108266475141	1361.945292701940	486.785877708768	1050.795157818857	1434.259495008284	671.307134263629	991.870047426537	1492.945634940468	500.184635735587	1068.269413300376	940.151042226130	634.137912244401	1029.795701931203	958.639341837987	361.354658627154	1069.818345945679	729.351649819216	605.640072842783	969.068353933064	631.464659433454	668.208052876591	1030.559307645773	568.787934191384	587.297716125011	1013.296451041769	484.901793140237	591.688390046413	1109.261606674279	773.966055090430	392.664218774950	1059.587118162863	643.328093013770	317.742981667345	1163.987659798384	585.774306361897	376.374233396596	1182.738829401427	512.989909455596	375.450377440016	1157.308967477665	437.774137617028	365.969966812122	1072.249827442468	320.003696251592	313.330802700158	1139.772008919010	208.346062541475	371.077343131567	977.464612814063	399.840978009257	596.756597440234	895.933265436396	301.742014421162	655.959501780351	930.989358597945	205.078577999533	589.664643937940	786.442754204235	43.180533610537	553.932695224341	959.290698604567	97.010136627499	590.332798923752	870.330670478789	36.587065920424	628.001044549192	1078.584264632263	42.282552173946	615.177219542529	1027.958988145486	43.367168950171	406.564971790259	1102.133522663229	41.441568352113	326.956476629314	1182.246526174820	108.061646806362	351.049459193518	1311.311310660617	62.909227638220	323.803816016256	875.366412372430	1089.229906483296	253.266962092271	902.827519749475	827.664030522978	249.686772835491	1167.195691857524	1105.626318599287	777.568254955808	1406.041630440727	1080.950580236372	693.037855891635	
72	17.663142857143	831.460969933064	1002.254238337930	536.111704225318	986.052903844897	1429.490512625550	338.643631721113	1109.219024305998	1361.539332722828	484.528471177531	1050.184110989751	1433.812304384907	668.891727515380	991.681093687553	1492.270081243003	497.631365801302	1068.865770886370	939.522823428059	632.396352738987	1031.422229371157	957.590755848824	359.580849903181	1069.766520562610	728.448803415645	604.386695726610	968.096293329847	631.163961145995	666.717875902015	1029.418984462648	567.924772942934	586.203823047100	1011.495669855976	483.977993423706	590.556557490209	1109.927713023620	771.164323775515	392.029285176648	1058.986277663204	641.143462084147	317.483585437747	1162.180264360252	582.547107892774	377.502469300078	1179.863572401874	509.608223267572	377.021309783580	1154.118226016959	434.622055881494	367.139188741948	1068.618222098901	317.387536321776	314.041638876001	1134.490364093164	205.332356124064	372.775281698811	974.927931437791	399.211949234394	595.919810113020	892.508864839816	302.000909624302	655.355965219197	926.721300054942	204.844247339461	589.408850302131	781.185674558311	43.431658960242	554.066219640447	954.079482147920	96.995789525039	590.388829726470	865.082319478806	36.590810741643	628.051832395768	1073.317353697516	42.086061224151	615.219731109358	1020.590698304030	42.004770609098	407.326643204281	1095.340120699854	39.710705400574	328.174461650099	1176.137169898691	104.869089859993	353.405184783152	1305.062584646755	58.141345412667	326.837777594673	876.091060038426	1088.088939414512	251.049154277984	904.959968837434	826.642772085312	247.199958724733	1166.383826968230	1105.480940237939	776.653910779624	1405.790554840665	1080.185920368874	693.704590168335	
73	17.676285714286	832.295730192760	1001.702284462909	533.143359346670	986.624391170693	1428.653437190507	335.825401976330	1109.514038451916	1361.167683764157	482.144183782201	1049.732219761792	1433.479705669867	666.307580180096	991.714064181874	1491.698684046841	494.858486057873	1069.461386645850	938.958690587955	630.474227114622	1032.927993688683	956.656250876728	357.670965324343	1069.887769107362	727.644615184765	603.034211176705	967.351867658493	630.935202620056	665.120636547982	1028.592515304552	567.143962657001	585.047167254792	1009.999193153353	483.089424317236	589.350727568957	1110.319775823839	768.396952322769	391.158669177532	1058.052213710738	639.107676585353	317.040952706972	1160.103746004688	579.540822745262	378.499097837377	1176.881285336491	506.547428964813	378.392030413215	1150.910632889142	431.790627983108	368.084590447841	1065.107697769431	314.994051980917	314.612159067149	1129.466122627741	202.647220849470	374.220858181340	972.652847013140	398.628941861810	595.036365640659	889.264162798166	302.396767279299	654.719554759512	922.590546856311	204.706734149043	589.188810046404	775.959387889184	43.882815377919	554.272413059884	948.940592545353	97.023551583454	590.504997203871	859.867152882928	36.652473365113	628.124394181578	1068.079893473088	41.820266699253	615.275613226949	1013.774992465605	40.781490118339	407.954737087547	1088.976814278655	38.317744590632	329.148447383415	1170.310526553561	102.186145683531	355.432425199134	1299.149849808688	54.183648085362	329.314130231435	877.414131472861	1086.922240665676	248.472294237288	907.688601259273	825.615975457123	244.250428018888	1165.053958145180	1105.253863821220	775.847363143472	1405.057299694898	1078.516906253115	694.844155639634	
74	17.689428571429	833.107032840097	1001.358371893918	530.128429305143	987.474786968300	1427.948576795305	332.852986148534	1109.996665260999	1360.865146678762	479.647537068001	1049.487181659068	1433.303981107080	663.572499812002	991.975600948732	1491.277879741722	491.900467295569	1070.024895678876	938.494250371877	628.351197869803	1034.251702415868	955.907582215377	355.591571704295	1070.111605621577	726.980098594459	601.541397911142	966.802870300478	630.812112166725	663.417090920818	1028.046203514112	566.486265637906	583.816766619132	1008.795212340247	482.263583752539	588.084310868262	1110.483788042921	765.894808919442	390.007150351000	1056.927451951216	637.371169504337	316.385423051409	1157.947675948424	576.950859467770	379.216287461963	1173.966177327036	503.952370095143	379.439179972417	1147.832850350183	429.395272084571	368.733318589184	1061.812891208512	312.971097986327	314.974167877812	1124.751361507168	200.405531878606	375.345389096557	970.622444815182	398.122139542978	594.115964501897	886.184462371342	302.960391052969	654.056200624990	918.597605440896	204.697180607622	589.014427142453	770.768641639332	44.575520594609	554.561061611387	943.886444481439	97.106281454307	590.693047402108	854.688126021928	36.792973792036	628.227584258434	1062.873672496253	41.489443092684	615.346192016203	1007.521217676564	39.780691674900	408.444772336006	1083.038272656059	37.303992630401	329.867183907733	1164.770860105889	100.097966221577	357.054211866300	1293.564732773925	51.113906672735	331.151027359722	879.363156661041	1085.800771327719	245.539473009817	911.017036663993	824.653781847381	240.852154537997	1163.217858746718	1104.978798423175	775.099790188597	1403.830536943502	1075.910596708707	696.438597392834	
